<svg xmlns="http://www.w3.org/2000/svg" viewBox="0 0 511.992 511.992"><linearGradient id="a" gradientUnits="userSpaceOnUse" x1="-29.776" y1="615.233" x2="-29.776" y2="641.233" gradientTransform="matrix(15.8627 0 0 -15.8627 728.33 10221.465)"><stop offset="0" stop-color="#4dc4ff"/><stop offset="1" stop-color="#4de1ff"/></linearGradient><path fill="url(#a)" d="M135.939 462.211L15.859 255.996l120.08-206.215h240.098l120.096 206.215-120.096 206.215z"/><path d="M509.839 248.017L389.758 41.802a15.816 15.816 0 00-13.721-7.884H135.939a15.816 15.816 0 00-13.721 7.884L2.153 248.017a15.86 15.86 0 000 15.958L122.218 470.19a15.816 15.816 0 0013.721 7.884h240.114a15.81 15.81 0 0013.705-7.884l120.081-206.215a15.86 15.86 0 000-15.958zM366.916 446.348H145.06L34.212 255.996 145.044 65.644h221.871l110.848 190.352-110.847 190.352z" fill="#297bcc"/></svg>