<svg width="40" height="36" xmlns="http://www.w3.org/2000/svg"><path d="M0 8c0 1.933.617 3.6 1.85 5 1.267 1.4 2.7 2.15 4.3 2.25h2.4c1.533.067 2.3.75 2.3 2.05 0 1.267-.65 3.233-1.95 5.9-1.3 2.6-2.75 4.9-4.35 6.9-.833 1.133-1.25 2.017-1.25 2.65 0 1.6.8 2.4 2.4 2.4 1.367 0 2.967-1.233 4.8-3.7 4.933-6.567 7.4-13.133 7.4-19.7 0-3.433-.883-6.233-2.65-8.4C13.383 1.117 11.117 0 8.45 0 6.017 0 4 .783 2.4 2.35.8 3.85 0 5.733 0 8zm28.25 7.25h2.4c1.4.067 2.1.75 2.1 2.05 0 1.267-.617 3.233-1.85 5.9-1.3 2.6-2.717 4.9-4.25 6.9-.9 1.133-1.35 2.017-1.35 2.65 0 1.6.767 2.4 2.3 2.4 1.3 0 2.9-1.233 4.8-3.7 5.033-6.633 7.55-13.2 7.55-19.7 0-3.433-.883-6.233-2.65-8.4C35.5 1.117 33.183 0 30.35 0 27.983 0 26 .783 24.4 2.35 22.8 3.85 22 5.733 22 8c0 1.933.617 3.6 1.85 5 1.267 1.4 2.733 2.15 4.4 2.25z" fill="#ccc" fill-rule="evenodd"/></svg>